HIERARCHY
ROOT Hips
{
	OFFSET -14.64140 90.27770 -84.91600
	CHANNELS 6 Xposition Yposition Zposition Zrotation Xrotation Yrotation
	JOINT Spine
	{
		OFFSET 0.00000 13.20850 -1.60436
		CHANNELS 3 Zrotation Xrotation Yrotation
		JOINT Spine1
		{
			OFFSET 0.00000 8.61716 0.00000
			CHANNELS 3 Zrotation Xrotation Yrotation
			JOINT Spine2
			{
				OFFSET 0.00000 8.61717 0.00000
				CHANNELS 3 Zrotation Xrotation Yrotation
				JOINT Spine3
				{
					OFFSET 0.00000 8.61717 0.00000
					CHANNELS 3 Zrotation Xrotation Yrotation
					JOINT Neck
					{
						OFFSET 0.00000 11.07920 1.10792
						CHANNELS 3 Zrotation Xrotation Yrotation
						JOINT Neck1
						{
							OFFSET 0.00000 7.08032 0.00000
							CHANNELS 3 Zrotation Xrotation Yrotation
							JOINT Head
							{
								OFFSET 0.00000 7.08031 0.00000
								CHANNELS 3 Zrotation Xrotation Yrotation
								End site
								{
									OFFSET 0.00000 0.00000 0.00000
								}
							}
						}
					}
					JOINT RightShoulder
					{
						OFFSET -0.01000 7.91373 5.19711
						CHANNELS 3 Zrotation Xrotation Yrotation
						JOINT RightArm
						{
							OFFSET -18.41580 0.00000 0.00000
							CHANNELS 3 Zrotation Xrotation Yrotation
							JOINT RightForeArm
							{
								OFFSET -29.11090 0.00000 0.00000
								CHANNELS 3 Zrotation Xrotation Yrotation
								JOINT RightHand
								{
									OFFSET -24.65040 0.00000 0.00000
									CHANNELS 3 Zrotation Xrotation Yrotation
									JOINT RightHandThumb1
									{
										OFFSET -5.35114 -0.85590 3.97906
										CHANNELS 3 Zrotation Xrotation Yrotation
										JOINT RightHandThumb2
										{
											OFFSET -4.52789 0.00000 0.00000
											CHANNELS 3 Zrotation Xrotation Yrotation
											JOINT RightHandThumb3
											{
												OFFSET -2.46976 0.00000 0.00000
												CHANNELS 3 Zrotation Xrotation Yrotation
												End site
												{
													OFFSET 0.00000 0.00000 0.00000
												}
											}
										}
									}
									JOINT RightHandIndex1
									{
										OFFSET -14.26970 0.00000 2.88139
										CHANNELS 3 Zrotation Xrotation Yrotation
										JOINT RightHandIndex2
										{
											OFFSET -5.48836 0.00000 0.00000
											CHANNELS 3 Zrotation Xrotation Yrotation
											JOINT RightHandIndex3
											{
												OFFSET -3.01859 0.00000 0.00000
												CHANNELS 3 Zrotation Xrotation Yrotation
												End site
												{
													OFFSET 0.00000 0.00000 0.00000
												}
											}
										}
									}
									JOINT RightHandMiddle1
									{
										OFFSET -14.26970 0.00000 -0.09147
										CHANNELS 3 Zrotation Xrotation Yrotation
										JOINT RightHandMiddle2
										{
											OFFSET -6.17441 0.00000 0.00000
											CHANNELS 3 Zrotation Xrotation Yrotation
											JOINT RightHandMiddle3
											{
												OFFSET -3.56743 0.00000 0.00000
												CHANNELS 3 Zrotation Xrotation Yrotation
												End site
												{
													OFFSET 0.00000 0.00000 0.00000
												}
											}
										}
									}
									JOINT RightHandRing1
									{
										OFFSET -12.69180 0.00000 -3.06433
										CHANNELS 3 Zrotation Xrotation Yrotation
										JOINT RightHandRing2
										{
											OFFSET -5.62556 0.00000 0.00000
											CHANNELS 3 Zrotation Xrotation Yrotation
											JOINT RightHandRing3
											{
												OFFSET -3.56744 0.00000 0.00000
												CHANNELS 3 Zrotation Xrotation Yrotation
												End site
												{
													OFFSET 0.00000 0.00000 0.00000
												}
											}
										}
									}
									JOINT RightHandPinky1
									{
										OFFSET -11.11390 0.00000 -6.03719
										CHANNELS 3 Zrotation Xrotation Yrotation
										JOINT RightHandPinky2
										{
											OFFSET -4.52789 0.00000 0.00000
											CHANNELS 3 Zrotation Xrotation Yrotation
											JOINT RightHandPinky3
											{
												OFFSET -2.46976 0.00000 0.00000
												CHANNELS 3 Zrotation Xrotation Yrotation
												End site
												{
													OFFSET 0.00000 0.00000 0.00000
												}
											}
										}
									}
								}
							}
						}
					}
					JOINT LeftShoulder
					{
						OFFSET 0.01000 7.91373 5.19711
						CHANNELS 3 Zrotation Xrotation Yrotation
						JOINT LeftArm
						{
							OFFSET 18.41580 0.00000 0.00000
							CHANNELS 3 Zrotation Xrotation Yrotation
							JOINT LeftForeArm
							{
								OFFSET 29.11090 0.00000 0.00000
								CHANNELS 3 Zrotation Xrotation Yrotation
								JOINT LeftHand
								{
									OFFSET 24.65040 0.00000 0.00000
									CHANNELS 3 Zrotation Xrotation Yrotation
									JOINT LeftHandThumb1
									{
										OFFSET 5.35114 -0.85590 3.97906
										CHANNELS 3 Zrotation Xrotation Yrotation
										JOINT LeftHandThumb2
										{
											OFFSET 4.52789 0.00000 0.00000
											CHANNELS 3 Zrotation Xrotation Yrotation
											JOINT LeftHandThumb3
											{
												OFFSET 2.46977 0.00000 0.00000
												CHANNELS 3 Zrotation Xrotation Yrotation
												End site
												{
													OFFSET 0.00000 0.00000 0.00000
												}
											}
										}
									}
									JOINT LeftHandIndex1
									{
										OFFSET 14.26970 0.00000 2.88139
										CHANNELS 3 Zrotation Xrotation Yrotation
										JOINT LeftHandIndex2
										{
											OFFSET 5.48836 0.00000 0.00000
											CHANNELS 3 Zrotation Xrotation Yrotation
											JOINT LeftHandIndex3
											{
												OFFSET 3.01859 0.00000 0.00000
												CHANNELS 3 Zrotation Xrotation Yrotation
												End site
												{
													OFFSET 0.00000 0.00000 0.00000
												}
											}
										}
									}
									JOINT LeftHandMiddle1
									{
										OFFSET 14.26970 0.00000 -0.09147
										CHANNELS 3 Zrotation Xrotation Yrotation
										JOINT LeftHandMiddle2
										{
											OFFSET 6.17440 0.00000 0.00000
											CHANNELS 3 Zrotation Xrotation Yrotation
											JOINT LeftHandMiddle3
											{
												OFFSET 3.56744 0.00000 0.00000
												CHANNELS 3 Zrotation Xrotation Yrotation
												End site
												{
													OFFSET 0.00000 0.00000 0.00000
												}
											}
										}
									}
									JOINT LeftHandRing1
									{
										OFFSET 12.69180 0.00000 -3.06433
										CHANNELS 3 Zrotation Xrotation Yrotation
										JOINT LeftHandRing2
										{
											OFFSET 5.62556 0.00000 0.00000
											CHANNELS 3 Zrotation Xrotation Yrotation
											JOINT LeftHandRing3
											{
												OFFSET 3.56744 0.00000 0.00000
												CHANNELS 3 Zrotation Xrotation Yrotation
												End site
												{
													OFFSET 0.00000 0.00000 0.00000
												}
											}
										}
									}
									JOINT LeftHandPinky1
									{
										OFFSET 11.11390 0.00000 -6.03719
										CHANNELS 3 Zrotation Xrotation Yrotation
										JOINT LeftHandPinky2
										{
											OFFSET 4.52789 0.00000 0.00000
											CHANNELS 3 Zrotation Xrotation Yrotation
											JOINT LeftHandPinky3
											{
												OFFSET 2.46976 0.00000 0.00000
												CHANNELS 3 Zrotation Xrotation Yrotation
												End site
												{
													OFFSET 0.00000 0.00000 0.00000
												}
											}
										}
									}
								}
							}
						}
					}
					JOINT pCube4
					{
						OFFSET 0.00000 10.91090 1.10792
						CHANNELS 3 Zrotation Xrotation Yrotation
						End site
						{
							OFFSET 0.00000 0.00000 0.00000
						}
					}
				}
			}
		}
	}
	JOINT RightUpLeg
	{
		OFFSET -9.98441 0.00000 0.00000
		CHANNELS 3 Zrotation Xrotation Yrotation
		JOINT RightLeg
		{
			OFFSET 0.00000 -42.11790 0.00000
			CHANNELS 3 Zrotation Xrotation Yrotation
			JOINT RightFoot
			{
				OFFSET 0.00000 -45.00020 -0.00001
				CHANNELS 3 Zrotation Xrotation Yrotation
				JOINT RightForeFoot
				{
					OFFSET 0.00000 -3.74820 0.00000
					CHANNELS 3 Zrotation Xrotation Yrotation
					JOINT RightToeBase
					{
						OFFSET 0.00000 0.06325 14.43120
						CHANNELS 3 Zrotation Xrotation Yrotation
						End site
						{
							OFFSET 0.00000 0.00000 0.00000
						}
					}
				}
			}
		}
	}
	JOINT LeftUpLeg
	{
		OFFSET 9.98441 0.00000 0.00000
		CHANNELS 3 Zrotation Xrotation Yrotation
		JOINT LeftLeg
		{
			OFFSET 0.00000 -42.11800 0.00000
			CHANNELS 3 Zrotation Xrotation Yrotation
			JOINT LeftFoot
			{
				OFFSET 0.00000 -45.00070 0.00000
				CHANNELS 3 Zrotation Xrotation Yrotation
				JOINT LeftForeFoot
				{
					OFFSET 0.00000 -3.74824 0.00000
					CHANNELS 3 Zrotation Xrotation Yrotation
					JOINT LeftToeBase
					{
						OFFSET 0.00000 0.06325 14.43110
						CHANNELS 3 Zrotation Xrotation Yrotation
						End site
						{
							OFFSET 0.00000 0.00000 0.00000
						}
					}
				}
			}
		}
	}
}
MOTION
Frames: 4
Frame Time: 0.050000
-0.02185510515391266 0.03941136912343206 -0.00011565908426644218 -0.009423990916780887 0.015741872280201737 0.024072193280522947 -3.1924526960842434 -0.7113494029111121 -0.6751539745889239 -1.0460876091695956 3.642415682688046 0.3911363914424636 -1.2358213776667328 -2.1741686396563122 -1.3472220905061907 -0.05632998381661601 0.2513914812082616 -0.8971041069683678 -0.6155577369430547 13.258658242310997 1.8183884172025355 -0.09649473222674146 0.9192433112528134 2.4168681317260994 -0.6132575910470784 -13.023977637969368 0.2916080554537398 -4.874693433051245 1.6983587212098838 -13.864222899489107 66.7798993387748 11.271109261049684 15.347351210164716 27.107473836714334 -0.9310665093890605 83.82115363549113 16.473701989600553 -0.4479837616267122 -3.1702611631075146 4.575987202875923 -0.14981644291225812 -1.5985191124433729 0.013749551137845283 0.038845189274294964 -56.279980919338925 -0.004095023831581477 -0.0011589303963162267 -56.22654400562348 -38.7572762487699 -0.039080094838543966 -0.01709377463481751 0.016835869801056797 -0.033952416855388606 0.02016917228873592 -0.04546551499963776 0.01650130661927764 0.020358377557173235 -36.715168585420216 0.027543208910810964 -0.03656098753544877 0.009804171692288496 0.011877191483774259 -0.03344401990021044 0.026181470662313227 -0.005508507581762751 -0.009237500641377006 -19.77193793698396 0.004655439047579111 0.030690383643879687 -0.014667066593663708 0.03447040589109858 0.008257079032119972 0.0008681929661155412 -0.008539106532545103 -0.003896713893521861 24.079809412560067 0.030566352603688503 -0.03125813365913885 28.837925901368617 -0.03288870844857171 -0.009658504821621679 28.823617271102805 0.0037634357718508036 0.021548296523520263 7.326361818426946 1.5495170307758708 12.74658048893145 -68.02461258493132 5.581580556318986 -17.99597507510658 -22.23659484958614 -15.14608145570122 -49.13230400882354 -3.785261483613125 -0.3362419284709097 0.12429315283487574 -0.4442347594319796 0.01783292412113137 -8.09274332926584 -0.015411439348961775 -0.00020682677727778151 44.53048511894048 -0.03530765073510036 -0.029209611508878294 44.5322712016987 12.45188335091339 -0.037250680522378135 0.011087020424297867 0.029564326702212956 -0.023519468269303668 0.04680184463756954 -0.009544982553783396 0.003277649589872111 0.028900471216649324 11.10486174072861 0.04012556281482959 0.04789379994950823 0.04411923607608003 0.005609910811772353 0.04894510033049894 -0.04302546056668538 0.04987123457146635 -0.04186188309382804 4.819495817973903 0.008536985743690263 -0.007660900317145329 0.0034059240203775953 -0.029614273979256853 -0.020426726153794275 -0.022040918104791488 0.03575484355289681 -0.018531465772260534 -5.605294372276297 -0.01857132079029487 0.04240555244217325 -6.683165984075584 -0.04125741233846897 -0.03464111366946981 -6.770306121939117 0.012507756392676561 0.028384328382351776 -0.042340495270565326 0.02451465262025141 0.017462274319707892 8.0269847353387 3.4933409778383036 -19.253966273729308 0.004932183947066693 10.365597555902703 0.04098379229700992 -5.588647046378309 -15.694816840291098 3.1892322505613127 0.020809634391342768 0.035071692563898346 -0.009033145025223342 -0.037094200563524235 4.7112404512079324 0.04498968102876901 12.410932216035821 -8.222017190638882 6.877933488177757 -0.03886681322114153 46.38196671649203 -0.019243645282124952 -4.321775483008996 -14.77480860910717 -3.8687595923105835 0.0241128956802585 -0.04383084090155284 -0.046880469049338534 -0.007397942211094544 -10.722961965279511 -0.03895046094485872 
-0.003783511164605831 0.0032137882066768557 0.018204157504192072 0.007648317446010819 0.02115927870199485 -0.03763937217713895 -2.9893217022773353 -0.7046833772118515 -0.7045412792721386 -1.0753217139942728 3.6536743297675494 0.3939253504072073 -1.142773048164735 -2.1796258956478454 -1.897834874186568 0.14897892284499792 0.19433390130869654 -0.9594164853275111 -0.7579061314290725 13.059572561661945 1.996075197674062 -0.18698433884084784 0.7017848484045043 3.2049687220298027 -0.7374017045268677 -13.41006537397255 0.3206502375252825 -4.780336499184186 1.7100452700541997 -14.225540398836074 67.08313768929423 9.551903535009242 12.259343236941893 28.64275413618604 -1.5046984406240647 85.96235530207169 15.933179932106352 -0.4156055522340079 -3.078321337852711 4.516068363731227 -0.14251727361470234 -1.6018207446434594 -0.024265886035040228 -0.018712312936419683 -56.19111339201043 -0.007682531859622936 0.04478059085857222 -56.21959534039428 -38.74853265741963 -0.019048446747491257 -0.015506976041917735 0.003089854220339418 0.02225889435588306 -0.01655636235404565 0.02187814637555993 0.019136827044489345 -0.011289175502606464 -36.67855186318685 0.047762542581734624 -0.013258951160502196 0.02448457686149398 -0.006725489811048719 0.004834318417828512 -0.02135144137780679 0.012013977468181588 -0.004040506952217429 -19.741845144204937 0.0015993946650168362 0.004016144520665884 0.036736838767075314 0.033160494435119585 -0.011984574356572861 0.011587832933430586 0.024829538782297385 -0.0210538230482277 24.028030998128735 0.025985055044252352 0.0009826440135577903 28.842826608747686 0.02493010570900375 -0.048734789060164194 28.84491419409243 -0.043301166149351325 0.007681413484597496 7.811859927470856 1.6025222418475746 12.749264999760019 -68.49132466856327 2.396068196137627 -18.7265813125343 -24.07593027046851 -15.530664933266229 -50.32439133330714 -1.7262149331275325 -0.30455826676711895 -0.4355805509651458 -0.46751385682354685 0.08996681396541713 -8.122654255228117 -0.013459774957867038 0.017944253675358433 44.52183164407099 -0.005217893973552123 0.03067187758939934 44.61296811337562 12.474205143188515 -0.015880168977331983 -0.01587641535721379 0.024288866109426537 0.027505478811499347 -0.04658995164559208 0.04662833260271946 -0.04782469179000338 -0.021432075713247494 11.144540515068963 -0.0077194051102269495 0.0002510541353047105 0.010350070232792413 -0.04580916356089714 0.025185602433260488 0.03227264545082056 0.015506364304724558 0.04412920989042234 4.790058845491462 -0.006042628922182221 0.020791210199255422 -0.019521377798133243 0.0072534888346640165 -0.008679608614763957 -0.012706195170067195 -0.020412993583733097 -0.000838063941045881 -5.628373910066645 -0.0165746024900302 -0.034886004459474915 -6.698815225495857 0.001788306475041066 -0.027489374670769832 -6.694756622830464 -0.00947173419738081 -0.009416695963086587 -0.004489674123639733 -0.03030015099658299 0.04916569605916701 8.001575769583539 3.5221457894880004 -19.241649899519217 0.026804808334502127 10.391803417763414 0.009631031248992086 -5.654744466223587 -15.674448200552554 3.1840782038945026 0.02801504162732988 -0.048451203601056717 0.04494411324233674 0.01320240290162427 4.715461906840092 0.022013803732069372 12.411145815064694 -8.262377087055404 6.897296281979335 0.045679373510779185 46.34611662728364 0.027958750956464315 -4.319645090671926 -14.727169833391546 -3.8331178021304324 0.038710588739613284 0.01968794613827159 0.008750881030984625 -0.013411045879901516 -10.757774524073348 0.007937280903861907 
-0.002932868732169546 0.024029245278796792 0.013413876078768538 0.03163843621412773 0.01492784915212376 -0.03511640960883584 -2.7945769449076088 -0.6277316597095346 -0.7939294259778972 -1.0532323642117594 3.5631272652002153 0.36508496642583843 -1.1435569536346388 -2.184065444491298 -2.232077101426071 0.2211796228530769 0.2600523077186209 -1.0152005282155612 -0.809769979183291 12.834113389943102 2.050605812120658 -0.22510344624920503 0.5654066290992303 3.6963000038732035 -0.9150854057341198 -13.869682205516158 0.38608087081303033 -4.66908812253017 1.6512827259582874 -14.661919249670605 67.72387844700444 8.527567288805818 9.092523757148637 29.30663748437737 -2.155153372533364 87.95089635197371 15.59597749699236 -0.4521389106472073 -2.9489211446093013 4.534909449728838 -0.14239807983112998 -1.5497320981509906 0.02952995461551925 0.01920133777708084 -56.20636345720295 0.02725088073023438 -0.041632293228479764 -56.27178282901842 -38.79168885209879 -0.02159842831231694 0.01189669690880877 0.026077342978358994 -0.002819179197844179 -0.028596070521405524 0.048319527963490164 -0.035326669871203774 0.011091456262744001 -36.65009773715775 0.006090127787991505 0.005552100216617113 0.018547421286646423 -0.022504433068275532 -0.013078277771282513 -0.037452614328757065 0.02978092456664008 -0.04841169981480162 -19.787595589364695 -0.04175245240376848 -0.005232268390099661 0.03648559686983809 0.018387265041883583 0.03121695167093119 0.01907968870727254 0.030434400584557656 0.004517755083266496 24.07580678633354 -0.03381601192041778 0.029881226674673432 28.823270291835833 -0.022928756969816864 -0.008147541410011188 28.87794448241952 -0.022121790959968392 -0.03895735975290232 8.067864114705046 1.6732237174543771 12.796346039529443 -69.37351899686514 0.8869747529610281 -18.253308089377928 -25.478144035358753 -15.263996107286118 -51.783753160712656 -0.2820265676035404 -0.18953824004533124 -0.7635305657515588 -0.4546984006850794 0.07459938261699509 -8.122461738601773 0.03161042232590415 -0.023821233209385773 44.56461154124099 0.029915000207902255 0.0033303259438603344 44.57671291046626 12.464085186688123 0.009449288403149035 -0.040148941479754056 -0.043209700616424186 0.023667865200483584 -0.04625482674197081 -0.010942908464016651 0.013129647161967082 0.011212618458029601 11.090358967635435 0.02162276630641968 0.045572519313896456 -0.027092342000309595 -0.011607820674550434 -0.01171759516607769 -0.009166789031965316 -0.0007342988304632562 0.019059435874678034 4.798176167128541 0.03971103585011821 -0.006215791331809702 0.03275898115679472 0.021105430444196053 0.01819037695500586 -0.03288235547204358 0.01999608425803914 -0.03082538113005565 -5.592580490103338 0.011613383680534392 -0.045056798111679494 -6.750621703449302 -0.016714160779656397 0.0021867070358666326 -6.677746150431974 -0.01617906978534289 -0.020251040156364062 -0.02497883384022989 -0.015478858918444588 -0.014504371696712478 8.06358601412813 3.5154755905985544 -19.221438159359284 0.009161264117067532 10.393758874344208 0.009308531809629372 -5.626176079726547 -15.709772647056802 3.188445914746993 0.005024257508720769 0.016634233152180097 -0.02951382354866032 -0.006502696357600125 4.703219452895068 -0.022204178519051748 12.45378862771504 -8.226698857950337 6.872268590811674 0.02926558655505147 46.36165325544963 0.005283381978768418 -4.3165687504982255 -14.703697033774645 -3.824381468598291 -0.013780826044285465 0.02880549912527512 0.008646679368036763 -0.039446262619691606 -10.714693492821846 0.0400739770656342 
0.028578564710516275 0.0031254442557151715 -0.0007727004890345829 0.020896744348192015 0.01568687102896406 0.04033796874978032 -2.626512672780229 -0.5330798723600748 -0.817165081661459 -1.0100748793624668 3.614719520318558 0.3404099138551393 -1.1459151025760352 -2.1291553985320957 -2.451296107152055 0.27386157157591595 0.21118495159809436 -1.050556327211496 -0.9160524310084963 12.668338317789603 2.090613833908256 -0.30166297691442584 0.3362600975720812 4.095899241233572 -0.9414724535945032 -14.17688652445555 0.3558756163058695 -4.626118959861803 1.6701636997926919 -15.090125107086536 68.46243917619857 8.245360615535567 6.209820786882485 28.588331523626646 -2.5988465356334594 89.2507668818353 15.517918732748964 -0.4629656068835689 -2.8657453700474016 4.494661195393029 -0.15454765779193538 -1.5524544508370184 -0.043467047879167386 0.001127682499055942 -56.260606388730146 -0.043392963703238606 -0.03763065129386134 -56.259997236636224 -38.75630989067283 -0.007079051643470893 0.026598156808449683 0.009954338089553563 0.030166010864102935 -0.014224984848126052 0.038262226086143276 -0.016769876078224798 -0.0119414439518514 -36.66710285150293 0.03957032000793703 0.023366796825224065 0.030822763268272685 0.003683552132669865 0.005896054920252687 -0.030724088694310238 -0.007583589057305471 -0.033541300126994925 -19.738641730372034 -0.023702455341748085 0.037098520339486046 0.020200830159567557 0.016820593783000336 0.010264507965681726 -0.04471626697842197 0.03531961591695675 0.014904579064680698 24.057833699717 0.025936200184633062 0.045718341735877396 28.8753819614984 -0.004627973229204099 -0.027204250998153656 28.90395834263073 -0.00629578974794326 0.004583794010987927 8.156672269316488 1.706072297123017 12.94121180949222 -70.47246915049188 1.277261162785515 -16.76199818343243 -26.762982875381322 -14.324653486916748 -53.4293673743766 0.41658300897431416 -0.02849099796245305 -0.9539458434210849 -0.4342720740471021 0.07554769556322809 -8.143585341676463 0.032211003029043776 0.04709604714180056 44.55089758632635 0.04769958343915924 -0.03660504794968354 44.579031627197544 12.484546305864459 -0.012392643777594333 -0.023080829776971113 -0.005002885664738458 -0.022792224414929455 -0.012371655475546915 -0.010013052204053165 -0.009343154347179184 0.03694854202324536 11.095485227803747 0.03896577047211767 0.03200155243291852 0.03269078652688746 -0.02201981153009739 -0.040490262039697016 -0.02567667575095768 -0.011851831227225452 0.014482322342511953 4.800302014651581 0.01855020371689878 -0.042487416040937045 0.013023854592114416 -0.018848098803438296 0.04207366026357905 0.0103197610902684 0.032957890282760575 0.03281212719796438 -5.56822092243882 0.03271402362375223 -0.029548838292065754 -6.6895331656285135 0.030363094064401207 0.003005236751413514 -6.67530969358754 -0.024523088253782462 -0.0033517130809405426 0.020811984396695505 0.007868709702496177 -0.018130756358941274 8.025785904574754 3.5217636391444533 -19.208614213634963 0.003509069727626215 10.394729250660363 0.056472982110389605 -5.6489233368255425 -15.659632417600873 3.1926369199345213 -0.02112572287918828 0.025112725860853977 -0.005076926968857477 0.030580576996511462 4.738618625933989 0.000985410286448681 12.466039411423559 -8.233329875549897 6.888086533833425 0.006403164668634301 46.389840851936135 -0.04289099664463782 -4.281314273862383 -14.705535893027058 -3.877211161055863 -0.024796878667500587 0.009159888497143817 -0.003155893507785805 0.04331210569332936 -10.741476477687309 0.028293457832656722 
